#!OML:ASF H:\Terrain\Patient Classification 1\Walking\liu\liu.ASF
:FULLY-SPECIFIED
:DEGREES
307
root 10.016200 16.752899 6.185800 7.373940 7.449890 5.100030
lowerback -80.238708 -49.625000 -69.031204
upperback -7.559370 -60.731503 19.072300
thorax 46.297401 -31.670301 50.960999
lowerneck -188.570999 -46.829102 -128.085999
upperneck 217.682983 -58.536602 122.363007
head 108.954002 -23.265301 57.467598
rclavicle -0.000000 -0.000000
rhumerus -497.117981 60.571198 -827.474976
rradius 346.139984
rwrist -189.951996
rhand -282.791016 -271.860016
rfingers 71.250198
rthumb -16.554399 -571.593018
lclavicle -0.000000 -0.000000
lhumerus -119.981003 -355.609009 903.237976
lradius 372.263000
lwrist 176.574997
lhand -113.005997 -208.009003
lfingers 71.250198
lthumb 147.308990 86.556999
rfemur -441.939026 181.536011 -8.495330
rtibia 252.359009
rfoot -328.451996 -198.742004
rtoes -213.766998
lfemur 137.066010 29.276901 -287.046997
ltibia 0.000000
lfoot -146.643005 8.728050
ltoes 11.989500
308
root 10.002400 16.731899 6.334230 7.508800 7.673760 4.847830
lowerback -81.201294 -48.961201 -66.583397
upperback -7.905450 -59.994701 18.895901
thorax 46.089302 -31.234100 49.464996
lowerneck -187.064987 -47.605900 -125.337997
upperneck 216.076996 -60.383102 121.779007
head 108.237000 -23.980801 56.410198
rclavicle -0.000000 0.000000
rhumerus -494.533020 52.016403 -825.280029
rradius 337.156982
rwrist -180.639984
rhand -265.737000 -274.442993
rfingers 71.250198
rthumb -0.083279 -574.239990
lclavicle -0.000000 0.000000
lhumerus -123.936005 -368.372986 906.513977
lradius 378.694000
lwrist 177.877991
lhand -115.452003 -212.299011
lfingers 71.250198
lthumb 144.951996 82.437698
rfemur -443.314026 179.067993 -4.806580
rtibia 250.251999
rfoot -331.957031 -199.904999
rtoes -208.869995
lfemur 141.348999 29.657000 -281.864990
ltibia 0.000000
lfoot -147.255997 6.514780
ltoes 5.259220
309
root 9.992270 16.712099 6.491320 7.609820 7.929990 5.051830
lowerback -82.205894 -49.290398 -69.250305
upperback -7.206160 -60.088699 18.482201
thorax 47.635197 -31.391800 50.387802
lowerneck -183.519989 -47.560699 -128.134003
upperneck 210.697998 -60.709999 126.781998
head 105.919998 -23.898300 58.545700
rclavicle 0.000000 -0.000000
rhumerus -493.500000 53.580399 -826.432007
rradius 333.208984
rwrist -179.694000
rhand -265.604004 -260.575989
rfingers 71.250198
rthumb 0.045079 -560.372986
lclavicle 0.000000 -0.000000
lhumerus -125.841995 -370.812012 910.521973
lradius 383.338013
lwrist 169.683990
lhand -109.020004 -217.007004
lfingers 71.250198
lthumb 151.149002 77.273895
rfemur -441.031982 168.728012 -0.536830
rtibia 247.376999
rfoot -327.788025 -198.367996
rtoes -213.791016
lfemur 146.419998 29.324100 -281.480011
ltibia 0.000000
lfoot -146.932999 3.067320
ltoes 0.877102
310
root 9.985370 16.687700 6.655970 7.670240 8.008930 5.300190
lowerback -82.062302 -49.565601 -71.737999
upperback -7.545450 -60.227600 18.152300
thorax 47.440300 -31.491798 51.431198
lowerneck -190.746994 -49.785599 -126.986000
upperneck 217.669998 -62.948799 122.805008
head 110.019997 -25.060799 56.741402
rclavicle 0.000000 -0.000000
rhumerus -492.979004 51.586197 -823.767029
rradius 326.627014
rwrist -175.207001
rhand -264.037994 -248.603989
rfingers 71.250198
rthumb 1.557470 -548.401001
lclavicle 0.000000 -0.000000
lhumerus -129.610001 -373.265015 916.044983
lradius 387.093994
lwrist 162.901001
lhand -103.903999 -216.406998
lfingers 71.250198
lthumb 156.076996 77.496002
rfemur -437.321014 150.798004 9.065480
rtibia 244.617004
rfoot -315.908997 -188.729004
rtoes -212.938004
lfemur 152.020996 30.677200 -281.509003
ltibia -0.000000
lfoot -144.609009 -1.454220
ltoes 5.664370
311
root 9.973490 16.668900 6.817870 7.726930 8.048590 4.873230
lowerback -82.916405 -48.662399 -66.924103
upperback -7.679040 -59.445499 18.950899
thorax 47.251701 -31.005299 49.651199
lowerneck -192.250000 -51.125397 -126.632004
upperneck 217.688004 -64.539803 121.874001
head 110.511002 -25.812901 56.060699
rclavicle -0.000000 0.000000
rhumerus -491.828003 47.245899 -822.233948
rradius 320.704987
rwrist -170.296005
rhand -263.222015 -259.292999
rfingers 71.250198
rthumb 2.345850 -559.088989
lclavicle -0.000000 0.000000
lhumerus -131.791000 -386.996002 918.812012
lradius 391.309021
lwrist 165.902008
lhand -102.742996 -213.855988
lfingers 71.250198
lthumb 157.194992 79.959801
rfemur -434.598022 131.624008 28.177799
rtibia 243.393005
rfoot -294.580994 -181.703003
rtoes -213.003006
lfemur 156.972000 32.987999 -274.002014
ltibia -0.000000
lfoot -142.018005 -4.693870
ltoes 1.606460
312
root 9.959380 16.645700 6.992170 7.709690 8.154990 4.541500
lowerback -84.244606 -48.493099 -64.130402
upperback -7.767200 -59.431602 19.792200
thorax 47.704300 -30.959599 48.882797
lowerneck -192.136993 -50.942501 -124.983994
upperneck 217.367004 -64.480301 120.748993
head 110.256004 -25.776600 55.339699
rclavicle 0.000000 -0.000000
rhumerus -494.486023 51.920399 -826.196960
rradius 320.527985
rwrist -172.667007
rhand -274.432007 -253.265991
rfingers 71.250198
rthumb -8.481360 -553.046997
lclavicle 0.000000 -0.000000
lhumerus -136.569992 -393.725006 922.373962
lradius 395.877014
lwrist 162.861008
lhand -97.172897 -216.654999
lfingers 71.250198
lthumb 162.558990 76.730202
rfemur -431.342010 115.162003 44.906902
rtibia 243.724991
rfoot -277.945984 -173.012009
rtoes -195.447998
lfemur 163.083984 34.679798 -267.751007
ltibia -0.000000
lfoot -141.733994 -4.420780
ltoes -26.743099
313
root 9.947110 16.610901 7.173530 7.696500 8.271620 4.715910
lowerback -84.913498 -49.257202 -66.676895
upperback -8.135470 -60.142899 19.259501
thorax 47.995102 -31.352301 49.595200
lowerneck -191.226990 -49.937401 -124.028000
upperneck 217.805008 -63.877403 122.151001
head 110.168999 -25.290798 55.831600
rclavicle -0.000000 0.000000
rhumerus -497.942993 55.113800 -829.096008
rradius 319.855988
rwrist -175.921005
rhand -284.050995 -221.299988
rfingers 71.250198
rthumb -17.771900 -521.024048
lclavicle -0.000000 0.000000
lhumerus -144.743988 -392.190002 927.221985
lradius 400.854004
lwrist 152.243988
lhand -91.261101 -222.835007
lfingers 71.250198
lthumb 168.250000 70.075798
rfemur -428.520996 99.266197 54.866402
rtibia 245.786987
rfoot -270.401001 -156.214005
rtoes -175.003998
lfemur 169.515991 35.755699 -266.951996
ltibia 0.000000
lfoot -140.214996 -5.195120
ltoes -59.484600
314
root 9.935590 16.576000 7.353720 7.724020 8.390540 5.057960
lowerback -85.557800 -49.256702 -69.964096
upperback -8.375090 -59.727898 18.064800
thorax 48.252201 -31.195200 50.194099
lowerneck -188.097992 -50.396900 -126.092995
upperneck 216.102997 -64.637299 124.134995
head 109.202995 -25.682600 56.768497
rclavicle -0.000000 -0.000000
rhumerus -499.735992 52.163300 -827.902954
rradius 317.199005
rwrist -173.455994
rhand -282.936981 -222.220001
rfingers 71.250198
rthumb -16.695900 -521.953003
lclavicle -0.000000 -0.000000
lhumerus -152.824997 -394.408997 933.414001
lradius 405.098999
lwrist 143.205994
lhand -87.057602 -227.499008
lfingers 71.250198
lthumb 172.296997 65.063202
rfemur -426.674988 79.991295 64.820602
rtibia 250.757996
rfoot -260.790009 -137.205994
rtoes -196.249008
lfemur 175.901001 36.522900 -267.692993
ltibia 0.000000
lfoot -137.772003 -8.845970
ltoes -84.313896
